<svg width="111" height="67" viewBox="0 0 111 67" fill="none" xmlns="http://www.w3.org/2000/svg">
<g id="layer1">
<g id="bottleBody3">
<g id="path4349" opacity="0.48593">
<path d="M8.88597 33.9576L52.8541 19.3426C53.9769 18.9629 55.1792 18.8202 56.3595 18.9267C57.5912 19.0377 58.7894 19.3785 59.9839 19.6991C61.4848 20.1018 62.9715 20.5577 64.4401 21.0656C65.0974 21.2929 65.7511 21.5306 66.4009 21.7786L68.5398 21.5409L87.7897 16.9066L93.7312 32.6517C88.0402 34.5326 82.3561 36.4338 76.679 38.3556C75.5696 38.7311 74.4605 39.1074 73.3517 39.4845L71.9851 40.6134L66.6377 46.5549C66.1119 47.1422 65.5114 47.6626 64.8553 48.0997C64.2791 48.4835 63.6601 48.8029 63.0135 49.0503C57.6864 50.4781 52.3588 51.9041 47.0308 53.3282C37.5258 55.8689 28.0189 58.4039 18.5112 60.9333C17.6739 61.1253 16.8155 61.2252 15.9564 61.2304C14.8124 61.2373 13.6677 61.0761 12.5697 60.755C11.3658 60.4031 10.2183 59.8589 9.18304 59.1508C7.61242 58.0766 6.31395 56.6366 5.2617 55.0512C4.2573 53.538 3.46381 51.8766 3.00398 50.1196C2.64418 48.7451 2.49044 47.3219 2.46925 45.9012C2.44417 44.2201 2.60532 42.528 3.0634 40.9103C3.42241 39.6425 3.96589 38.421 4.72703 37.3453C5.77257 35.8678 7.22746 34.6831 8.88611 33.9586" fill="#92C7D9"/>
<path d="M8.88597 33.9576L52.8541 19.3426C53.9769 18.9629 55.1792 18.8202 56.3595 18.9267C57.5912 19.0377 58.7894 19.3785 59.9839 19.6991C61.4848 20.1018 62.9715 20.5577 64.4401 21.0656C65.0974 21.2929 65.7511 21.5306 66.4009 21.7786L68.5398 21.5409L87.7897 16.9066L93.7312 32.6517C88.0402 34.5326 82.3561 36.4338 76.679 38.3556C75.5696 38.7311 74.4605 39.1074 73.3517 39.4845L71.9851 40.6134L66.6377 46.5549C66.1119 47.1422 65.5114 47.6626 64.8553 48.0997C64.2791 48.4835 63.6601 48.8029 63.0135 49.0503C57.6864 50.4781 52.3588 51.9041 47.0308 53.3282C37.5258 55.8689 28.0189 58.4039 18.5112 60.9333C17.6739 61.1253 16.8155 61.2252 15.9564 61.2304C14.8124 61.2373 13.6677 61.0761 12.5697 60.755C11.3658 60.4031 10.2183 59.8589 9.18304 59.1508C7.61242 58.0766 6.31395 56.6366 5.2617 55.0512C4.2573 53.538 3.46381 51.8766 3.00398 50.1196C2.64418 48.7451 2.49044 47.3219 2.46925 45.9012C2.44417 44.2201 2.60532 42.528 3.0634 40.9103C3.42241 39.6425 3.96589 38.421 4.72703 37.3453C5.77257 35.8678 7.22746 34.6831 8.88611 33.9586" stroke="#5198A9" stroke-width="2"/>
</g>
<path id="path4351" d="M4.29269 39.0732C3.27578 43.6261 3.82469 48.5137 5.82615 52.7275C7.23856 55.7012 9.35805 58.3361 11.9601 60.3529C10.343 59.7984 8.83101 58.9385 7.52772 57.8322C5.92611 56.4726 4.64299 54.7401 3.80951 52.8117L2.38106 46.3837L3.1793 40.1448L4.29266 39.0734" fill="#6AB1C7"/>
<path id="path4353" d="M16.6566 60.5864C12.5291 61.9194 7.26449 57.3041 4.89742 50.2779C2.53036 43.2517 3.95742 36.4752 8.08467 35.1422C12.2121 33.8091 17.4767 38.4244 19.8438 45.4506C22.2109 52.4769 20.7838 59.2534 16.6566 60.5864V60.5864Z" stroke="#5198A9" stroke-width="2"/>
<path id="path4355" opacity="0.60177" d="M100.901 30.2988C98.1379 31.1266 94.614 28.2607 93.0296 23.8976C91.4452 19.5346 92.4005 15.3266 95.1631 14.4988C97.9258 13.671 101.45 16.537 103.034 20.9C104.619 25.2631 103.663 29.4711 100.901 30.2988V30.2988Z" fill="#92C7D9" stroke="#5198A9" stroke-width="2"/>
<g id="path4357" opacity="0.65929" filter="url(#filter0_f_1:3)">
<path d="M69.2442 21.868L67.6477 22.7922C67.3681 22.7596 67.088 22.7316 66.8074 22.7082C66.2484 22.6617 65.6878 22.6336 65.1268 22.6242C64.4793 22.4394 63.8349 22.2433 63.1942 22.036C62.2333 21.725 61.2805 21.3888 60.3372 21.0277C59.6033 20.8856 58.8745 20.7174 58.1526 20.5235C57.6732 20.3948 57.1969 20.2547 56.7241 20.1034L54.9595 19.9353L52.7748 20.2714L51.2623 20.8596L54.7914 21.3638L56.2198 22.4561L57.6483 24.4728L58.7406 26.8255L59.4969 28.9261L61.0093 31.7831C61.1938 32.2639 61.3899 32.7403 61.5975 33.2115C61.8097 33.6932 62.0339 34.1695 62.2697 34.64L62.5218 36.0684L63.278 38.3371C63.4037 38.8944 63.5158 39.4548 63.6141 40.0177C63.7117 40.5757 63.7957 41.1361 63.8662 41.6983L63.9502 43.631L63.5301 45.8997L63.194 46.4878L62.5218 47.076L61.4295 47.4121H63.5301L65.0426 46.3198L66.6391 44.9754L68.5717 42.8747L69.6641 41.9504L70.2522 41.2782L70.0842 40.4379L68.6557 39.5137L67.8995 38.0012L68.9918 35.2282L70.5043 34.388L71.5967 34.2199L72.605 33.9678L73.0251 32.7915L73.1091 31.1109L72.1848 28.6741L70.6724 26.9935L69.412 26.0693L68.3197 24.8089C68.1722 24.6361 68.0575 24.4354 67.9835 24.2207C67.8208 23.7485 67.8641 23.2093 68.0999 22.769C68.3357 22.3288 68.7607 21.9941 69.2439 21.868" fill="#5198A9"/>
<path d="M69.2442 21.868L67.6477 22.7922C67.3681 22.7596 67.088 22.7316 66.8074 22.7082C66.2484 22.6617 65.6878 22.6336 65.1268 22.6242C64.4793 22.4394 63.8349 22.2433 63.1942 22.036C62.2333 21.725 61.2805 21.3888 60.3372 21.0277C59.6033 20.8856 58.8745 20.7174 58.1526 20.5235C57.6732 20.3948 57.1969 20.2547 56.7241 20.1034L54.9595 19.9353L52.7748 20.2714L51.2623 20.8596L54.7914 21.3638L56.2198 22.4561L57.6483 24.4728L58.7406 26.8255L59.4969 28.9261L61.0093 31.7831C61.1938 32.2639 61.3899 32.7403 61.5975 33.2115C61.8097 33.6932 62.0339 34.1695 62.2697 34.64L62.5218 36.0684L63.278 38.3371C63.4037 38.8944 63.5158 39.4548 63.6141 40.0177C63.7117 40.5757 63.7957 41.1361 63.8662 41.6983L63.9502 43.631L63.5301 45.8997L63.194 46.4878L62.5218 47.076L61.4295 47.4121H63.5301L65.0426 46.3198L66.6391 44.9754L68.5717 42.8747L69.6641 41.9504L70.2522 41.2782L70.0842 40.4379L68.6557 39.5137L67.8995 38.0012L68.9918 35.2282L70.5043 34.388L71.5967 34.2199L72.605 33.9678L73.0251 32.7915L73.1091 31.1109L72.1848 28.6741L70.6724 26.9935L69.412 26.0693L68.3197 24.8089C68.1722 24.6361 68.0575 24.4354 67.9835 24.2207C67.8208 23.7485 67.8641 23.2093 68.0999 22.769C68.3357 22.3288 68.7607 21.9941 69.2439 21.868" stroke="black"/>
</g>
</g>
<g id="letter">
<g id="path4361">
<path d="M55.0321 25.3622C55.5023 25.157 56.0045 25.0012 56.5175 25.0057C56.9465 25.0095 57.3867 25.1349 57.7058 25.4216C57.9861 25.6734 58.1518 26.0258 58.3 26.3723C58.8572 27.6748 59.2962 29.0777 60.2607 30.1154C60.6141 30.4957 61.0323 30.8192 61.3302 31.2443C61.8095 31.9284 61.9248 32.7941 62.0432 33.621C62.1872 34.6268 62.3566 35.6351 62.3402 36.6511C62.327 37.4777 62.1814 38.3249 61.7461 39.0278C61.4342 39.5314 60.9863 39.9395 60.4984 40.2755C60.0438 40.5885 59.5462 40.8459 59.013 40.9885C58.3169 41.1746 57.574 41.1592 56.8741 40.9885C56.0863 40.7964 55.3456 40.4069 54.7513 39.8554C54.1515 39.2988 53.7077 38.5866 53.4083 37.8251C53.1088 37.0636 52.9497 36.2525 52.8701 35.4381C52.7109 33.8093 52.8652 32.1654 52.7744 30.5314C52.7402 29.9158 52.6712 29.3007 52.6909 28.6844C52.7106 28.0682 52.8243 27.4419 53.1309 26.907C53.544 26.1862 54.2707 25.6945 55.0323 25.3622" fill="url(#paint0_radial_1:3)"/>
<path d="M55.0321 25.3622C55.5023 25.157 56.0045 25.0012 56.5175 25.0057C56.9465 25.0095 57.3867 25.1349 57.7058 25.4216C57.9861 25.6734 58.1518 26.0258 58.3 26.3723C58.8572 27.6748 59.2962 29.0777 60.2607 30.1154C60.6141 30.4957 61.0323 30.8192 61.3302 31.2443C61.8095 31.9284 61.9248 32.7941 62.0432 33.621C62.1872 34.6268 62.3566 35.6351 62.3402 36.6511C62.327 37.4777 62.1814 38.3249 61.7461 39.0278C61.4342 39.5314 60.9863 39.9395 60.4984 40.2755C60.0438 40.5885 59.5462 40.8459 59.013 40.9885C58.3169 41.1746 57.574 41.1592 56.8741 40.9885C56.0863 40.7964 55.3456 40.4069 54.7513 39.8554C54.1515 39.2988 53.7077 38.5866 53.4083 37.8251C53.1088 37.0636 52.9497 36.2525 52.8701 35.4381C52.7109 33.8093 52.8652 32.1654 52.7744 30.5314C52.7402 29.9158 52.6712 29.3007 52.6909 28.6844C52.7106 28.0682 52.8243 27.4419 53.1309 26.907C53.544 26.1862 54.2707 25.6945 55.0323 25.3622" stroke="black"/>
</g>
<g id="path4363">
<path d="M17.1246 52.5143C16.6559 52.2509 16.2322 51.9078 15.8769 51.5043C15.5049 51.0819 15.209 50.5949 14.9856 50.0783C14.7484 49.5298 14.5921 48.9473 14.5103 48.3553C14.4221 47.7163 14.425 47.0427 14.6886 46.4539C14.8448 46.105 15.0867 45.7999 15.3587 45.5313C15.6308 45.2627 15.9338 45.0278 16.2334 44.7903C16.5533 44.5366 16.8702 44.2791 17.184 44.0179C17.7049 43.9029 18.2206 43.7641 18.7288 43.602C19.069 43.4935 19.4059 43.3746 19.7389 43.2455C20.1807 43.277 20.6288 43.2159 21.046 43.0673C21.9605 42.7414 22.6728 42.0268 23.3633 41.3442C24.329 40.3895 25.3548 39.4312 26.6311 38.9676C27.2191 38.754 27.8477 38.6526 28.473 38.6705L29.0077 38.4328C29.7109 37.7553 30.4897 37.1562 31.325 36.6504C32.0679 36.2005 32.8531 35.8251 33.6422 35.4621C33.8887 35.3487 34.1436 35.2345 34.4146 35.2244C34.6058 35.2174 34.7986 35.2641 34.9653 35.3578C35.132 35.4516 35.2721 35.5922 35.3653 35.7592C35.6045 35.9751 35.9356 36.0855 36.2565 36.0563C36.5353 36.0309 36.7968 35.9068 37.0294 35.7512C37.262 35.5956 37.4719 35.4088 37.6825 35.2245L38.6331 34.3926C39.2486 34.1247 39.8017 33.715 40.2374 33.2043C40.591 32.7899 40.8649 32.3145 41.1286 31.8378C41.5089 31.1504 41.8878 30.4347 42.4952 29.9364C42.9443 29.568 43.4924 29.3416 44.0451 29.1626C44.5977 28.9836 45.1647 28.8463 45.7036 28.6293C46.6821 28.2351 47.5685 27.6463 48.4962 27.1439L49.9221 26.3715L49.328 28.5104C49.6882 28.3192 50.0448 28.1211 50.3975 27.9163C50.9966 27.5682 51.5842 27.2008 52.1799 26.8468C52.805 26.4753 53.439 26.1187 54.0812 25.7773L55.1507 25.302C54.6433 25.5606 54.221 25.9829 53.9624 26.4903C53.6298 27.1427 53.5741 27.8974 53.5465 28.6292C53.5113 29.5619 53.5122 30.5011 53.6653 31.4218C53.8056 32.2648 54.0729 33.085 54.4377 33.8578C54.7999 34.6251 55.2586 35.3472 55.8043 35.9968C56.2875 36.572 56.8499 37.098 57.5273 37.4227C57.9722 37.636 58.4605 37.758 58.9533 37.7792L59.3692 37.601L57.765 38.3734L56.5173 39.4429C56.4182 39.4825 56.3192 39.5222 56.2202 39.5617C43.4636 44.6574 30.4006 48.9854 17.1248 52.5143" fill="url(#paint1_linear_1:3)"/>
<path d="M17.1246 52.5143C16.6559 52.2509 16.2322 51.9078 15.8769 51.5043C15.5049 51.0819 15.209 50.5949 14.9856 50.0783C14.7484 49.5298 14.5921 48.9473 14.5103 48.3553C14.4221 47.7163 14.425 47.0427 14.6886 46.4539C14.8448 46.105 15.0867 45.7999 15.3587 45.5313C15.6308 45.2627 15.9338 45.0278 16.2334 44.7903C16.5533 44.5366 16.8702 44.2791 17.184 44.0179C17.7049 43.9029 18.2206 43.7641 18.7288 43.602C19.069 43.4935 19.4059 43.3746 19.7389 43.2455C20.1807 43.277 20.6288 43.2159 21.046 43.0673C21.9605 42.7414 22.6728 42.0268 23.3633 41.3442C24.329 40.3895 25.3548 39.4312 26.6311 38.9676C27.2191 38.754 27.8477 38.6526 28.473 38.6705L29.0077 38.4328C29.7109 37.7553 30.4897 37.1562 31.325 36.6504C32.0679 36.2005 32.8531 35.8251 33.6422 35.4621C33.8887 35.3487 34.1436 35.2345 34.4146 35.2244C34.6058 35.2174 34.7986 35.2641 34.9653 35.3578C35.132 35.4516 35.2721 35.5922 35.3653 35.7592C35.6045 35.9751 35.9356 36.0855 36.2565 36.0563C36.5353 36.0309 36.7968 35.9068 37.0294 35.7512C37.262 35.5956 37.4719 35.4088 37.6825 35.2245L38.6331 34.3926C39.2486 34.1247 39.8017 33.715 40.2374 33.2043C40.591 32.7899 40.8649 32.3145 41.1286 31.8378C41.5089 31.1504 41.8878 30.4347 42.4952 29.9364C42.9443 29.568 43.4924 29.3416 44.0451 29.1626C44.5977 28.9836 45.1647 28.8463 45.7036 28.6293C46.6821 28.2351 47.5685 27.6463 48.4962 27.1439L49.9221 26.3715L49.328 28.5104C49.6882 28.3192 50.0448 28.1211 50.3975 27.9163C50.9966 27.5682 51.5842 27.2008 52.1799 26.8468C52.805 26.4753 53.439 26.1187 54.0812 25.7773L55.1507 25.302C54.6433 25.5606 54.221 25.9829 53.9624 26.4903C53.6298 27.1427 53.5741 27.8974 53.5465 28.6292C53.5113 29.5619 53.5122 30.5011 53.6653 31.4218C53.8056 32.2648 54.0729 33.085 54.4377 33.8578C54.7999 34.6251 55.2586 35.3472 55.8043 35.9968C56.2875 36.572 56.8499 37.098 57.5273 37.4227C57.9722 37.636 58.4605 37.758 58.9533 37.7792L59.3692 37.601L57.765 38.3734L56.5173 39.4429C56.4182 39.4825 56.3192 39.5222 56.2202 39.5617C43.4636 44.6574 30.4006 48.9854 17.1248 52.5143" stroke="black" stroke-linejoin="round"/>
</g>
<g id="path4365">
<path d="M12.5496 55.7834C16.2212 53.2019 19.9664 50.7249 23.7791 48.3564C27.6569 45.9475 31.6035 43.6515 35.5433 41.3454C37.0296 40.4754 38.5149 39.6041 39.9995 38.7311C40.6028 38.5184 41.218 38.3398 41.8413 38.1964C42.5493 38.0336 43.2667 37.9165 43.9803 37.7805C44.3878 37.7028 44.796 37.6185 45.1852 37.4747C45.5743 37.3309 45.9462 37.1247 46.2381 36.8299C46.3778 36.6887 46.4981 36.5283 46.5945 36.3545C47.8287 35.9056 49.103 35.5672 50.3971 35.3445C51.0074 35.2395 51.622 35.1602 52.2389 35.1068L54.675 38.1963L57.0516 40.5136L58.1211 40.8701L59.7847 40.6919L60.8542 39.9789L59.7253 41.2266L58.2994 42.0584L57.2299 42.3555C56.8879 42.5651 56.5511 42.783 56.2198 43.0091C55.8565 43.2569 55.4999 43.5145 55.1504 43.7815L53.665 44.5539C53.3213 44.5532 52.9776 44.6138 52.6549 44.7321C52.1194 44.9284 51.6552 45.2757 51.1901 45.6058C50.725 45.9359 50.2379 46.2592 49.6841 46.3958C49.4129 46.4626 49.1303 46.4828 48.8523 46.4552C48.2237 46.3614 47.5842 46.3414 46.9509 46.3958C45.4057 46.5284 43.902 47.1132 42.6731 48.0594C40.8735 48.7398 39.0711 49.4132 37.2663 50.0795C35.9202 50.5765 34.5727 51.0695 33.226 51.5649C32.8496 51.7034 32.4733 51.842 32.0971 51.9808C31.6267 52.439 31.0829 52.8216 30.4929 53.1097C29.9287 53.3852 29.3246 53.5737 28.7104 53.7039C27.6908 53.92 26.6432 53.977 25.6209 54.1792C24.8883 54.3241 24.1704 54.5434 23.482 54.8328C22.7073 55.2513 21.8896 55.5904 21.0459 55.8428C20.4238 56.029 19.7877 56.1682 19.1446 56.2587C18.3848 56.5775 17.5838 56.7977 16.7679 56.9123C16.0601 57.0117 15.3412 57.0317 14.629 56.9717C14.2557 56.9146 13.8924 56.7935 13.5595 56.6152C13.1725 56.408 12.827 56.1235 12.5494 55.7834" fill="url(#paint2_linear_1:3)"/>
<path d="M12.5496 55.7834C16.2212 53.2019 19.9664 50.7249 23.7791 48.3564C27.6569 45.9475 31.6035 43.6515 35.5433 41.3454C37.0296 40.4754 38.5149 39.6041 39.9995 38.7311C40.6028 38.5184 41.218 38.3398 41.8413 38.1964C42.5493 38.0336 43.2667 37.9165 43.9803 37.7805C44.3878 37.7028 44.796 37.6185 45.1852 37.4747C45.5743 37.3309 45.9462 37.1247 46.2381 36.8299C46.3778 36.6887 46.4981 36.5283 46.5945 36.3545C47.8287 35.9056 49.103 35.5672 50.3971 35.3445C51.0074 35.2395 51.622 35.1602 52.2389 35.1068L54.675 38.1963L57.0516 40.5136L58.1211 40.8701L59.7847 40.6919L60.8542 39.9789L59.7253 41.2266L58.2994 42.0584L57.2299 42.3555C56.8879 42.5651 56.5511 42.783 56.2198 43.0091C55.8565 43.2569 55.4999 43.5145 55.1504 43.7815L53.665 44.5539C53.3213 44.5532 52.9776 44.6138 52.6549 44.7321C52.1194 44.9284 51.6552 45.2757 51.1901 45.6058C50.725 45.9359 50.2379 46.2592 49.6841 46.3958C49.4129 46.4626 49.1303 46.4828 48.8523 46.4552C48.2237 46.3614 47.5842 46.3414 46.9509 46.3958C45.4057 46.5284 43.902 47.1132 42.6731 48.0594C40.8735 48.7398 39.0711 49.4132 37.2663 50.0795C35.9202 50.5765 34.5727 51.0695 33.226 51.5649C32.8496 51.7034 32.4733 51.842 32.0971 51.9808C31.6267 52.439 31.0829 52.8216 30.4929 53.1097C29.9287 53.3852 29.3246 53.5737 28.7104 53.7039C27.6908 53.92 26.6432 53.977 25.6209 54.1792C24.8883 54.3241 24.1704 54.5434 23.482 54.8328C22.7073 55.2513 21.8896 55.5904 21.0459 55.8428C20.4238 56.029 19.7877 56.1682 19.1446 56.2587C18.3848 56.5775 17.5838 56.7977 16.7679 56.9123C16.0601 57.0117 15.3412 57.0317 14.629 56.9717C14.2557 56.9146 13.8924 56.7935 13.5595 56.6152C13.1725 56.408 12.827 56.1235 12.5494 55.7834" stroke="black" stroke-linejoin="round"/>
</g>
<g id="path4367">
<path d="M53.7844 31.0069C53.8529 30.302 54.1064 29.6231 54.4593 29.0091C54.8122 28.395 55.263 27.8421 55.7451 27.3233C55.9833 27.0669 56.2312 26.8167 56.5152 26.6121C56.7992 26.4076 57.1224 26.2492 57.4681 26.1944C57.805 26.1411 58.1565 26.1891 58.4688 26.3262C58.781 26.4634 59.0533 26.6886 59.2506 26.9668C59.4792 27.289 59.6047 27.6733 59.6886 28.0593C59.7725 28.4454 59.8179 28.8391 59.9042 29.2246C60.0426 29.8435 60.2848 30.4346 60.5577 31.007C60.8829 31.6889 61.2559 32.3562 61.449 33.0866C61.6486 33.8416 61.6464 34.6482 61.449 35.4038C61.3064 35.9492 61.0588 36.4749 60.6766 36.8892C60.2464 37.3555 59.645 37.6672 59.0129 37.721C58.5039 37.7644 57.9889 37.6433 57.5275 37.424C56.645 37.0044 55.9691 36.2494 55.3886 35.4632C54.9234 34.8332 54.5005 34.1664 54.2003 33.4431C53.8813 32.6745 53.7038 31.8352 53.7844 31.007" fill="url(#paint3_linear_1:3)"/>
<path d="M53.7844 31.0069C53.8529 30.302 54.1064 29.6231 54.4593 29.0091C54.8122 28.395 55.263 27.8421 55.7451 27.3233C55.9833 27.0669 56.2312 26.8167 56.5152 26.6121C56.7992 26.4076 57.1224 26.2492 57.4681 26.1944C57.805 26.1411 58.1565 26.1891 58.4688 26.3262C58.781 26.4634 59.0533 26.6886 59.2506 26.9668C59.4792 27.289 59.6047 27.6733 59.6886 28.0593C59.7725 28.4454 59.8179 28.8391 59.9042 29.2246C60.0426 29.8435 60.2848 30.4346 60.5577 31.007C60.8829 31.6889 61.2559 32.3562 61.449 33.0866C61.6486 33.8416 61.6464 34.6482 61.449 35.4038C61.3064 35.9492 61.0588 36.4749 60.6766 36.8892C60.2464 37.3555 59.645 37.6672 59.0129 37.721C58.5039 37.7644 57.9889 37.6433 57.5275 37.424C56.645 37.0044 55.9691 36.2494 55.3886 35.4632C54.9234 34.8332 54.5005 34.1664 54.2003 33.4431C53.8813 32.6745 53.7038 31.8352 53.7844 31.007" stroke="black"/>
</g>
</g>
<g id="bottleBody2">
<g id="path4369" opacity="0.69912" filter="url(#filter1_f_1:3)">
<path d="M61.0092 49.0084L57.9842 48.5883L56.3036 48.0841L55.2113 47.664L54.9592 48.0001H54.371L53.7829 47.664L53.6988 48.3362L53.0266 48.4202L52.4385 48.3362C52.2293 48.682 52.0049 49.0185 51.7662 49.3445C51.6835 49.4575 51.5991 49.5693 51.5142 49.6806C51.3205 49.9346 51.1245 50.1867 50.926 50.4369L50.1698 51.1091L50.5059 51.6132L53.1946 50.773L54.7071 50.5209L55.5474 50.0167H56.2196L57.2279 50.1008L61.009 49.0084" fill="#5198A9"/>
</g>
<g id="path4371" opacity="0.67929" filter="url(#filter2_f_1:3)">
<path d="M55.6324 20.8598L57.733 21.616L58.9934 22.2042L60.5059 23.7167L61.4302 25.6493L62.4385 27.4139L63.2787 28.3382L64.287 29.2625C64.2413 28.9248 64.1852 28.5885 64.119 28.2542C64.0688 28.0009 64.0128 27.7487 63.9509 27.4979L65.0433 27.582L66.3037 27.3299L67.0599 26.4056L68.4043 26.9098C68.093 26.5485 67.7848 26.1843 67.48 25.8174C67.111 25.3733 66.7469 24.9251 66.3877 24.473L63.867 23.4647C63.2598 23.1124 62.6433 22.7762 62.0183 22.4564C61.3826 22.1311 60.7381 21.8228 60.0857 21.5321L57.733 21.028L55.6323 20.8599" fill="white"/>
</g>
<g id="path4373" opacity="0.54867" filter="url(#filter3_f_1:3)">
<path d="M86.8903 17.5824L84.4536 18.1706L83.4453 19.0109L81.4286 19.5991L78.6557 20.0192L76.471 20.1032C75.4595 20.3422 74.451 20.5943 73.446 20.8595C72.4341 21.1264 71.4257 21.4065 70.4211 21.6997L68.1524 22.8761L66.892 23.0442L68.9086 24.8088L71.9336 25.3129L75.2947 24.2206C75.8756 23.6805 76.4638 23.1482 77.0593 22.6241C77.6407 22.1122 78.229 21.608 78.8239 21.1116L81.9329 20.0193L83.7815 19.9353L85.9662 18.927L86.8905 17.5825" fill="#5198A9"/>
</g>
<g id="path4375" opacity="0.78319" filter="url(#filter4_f_1:3)">
<path d="M84.874 18.1714L82.3533 19.4317L79.7485 19.6838L78.236 20.6081L75.2111 20.356L84.8741 18.1713" fill="white"/>
</g>
<g id="path4377" opacity="0.67257" filter="url(#filter5_f_1:3)">
<path d="M86.6375 18.1714L84.4528 19.5998L82.6882 20.272L80.9235 20.4401C80.5285 20.5414 80.1362 20.6535 79.7472 20.7762C79.2655 20.9281 78.789 21.0963 78.3187 21.2803L78.0667 21.4484L79.075 23.0449L79.5791 24.8095L79.6632 26.2379L80.5874 27.2463L82.4361 28.0025L83.6964 27.0782L84.1166 25.4817L84.0326 23.6331L84.5367 23.0449L85.7131 23.8852C85.8326 24.3314 85.9447 24.7796 86.0492 25.2296C86.3265 26.4233 86.5509 27.6292 86.7214 28.8427L87.3936 30.3552L88.654 31.5315L90.3346 32.2037L91.8471 32.4558L88.8221 28.9267L87.3096 25.6497L86.5534 22.0366L86.7214 19.5159L86.6374 18.1715" fill="white"/>
</g>
<g id="path4379" opacity="0.69469" filter="url(#filter6_f_1:3)">
<path d="M91.3439 32.3721C90.636 32.1728 89.9352 31.9486 89.2432 31.6999C88.7341 31.517 88.2297 31.3208 87.7307 31.1117L85.21 32.6242C84.0032 33.0088 82.7987 33.4009 81.5969 33.8006C80.311 34.2282 79.0276 34.6645 77.7316 35.061C76.9516 35.2996 76.1672 35.5237 75.3789 35.7332L73.1102 36.6575L71.2616 36.9936L72.2699 37.5818L74.2026 37.9179L75.9672 37.5818L72.1019 39.2624C75.8472 38.1513 79.5731 36.9747 83.2773 35.7333C86.091 34.7903 88.8923 33.8098 91.68 32.7923L91.3439 32.3722" fill="#5398A9"/>
</g>
<path id="path4381" d="M8.88597 33.9576L52.8541 19.3426C53.9769 18.9629 55.1792 18.8202 56.3595 18.9267C57.5912 19.0377 58.7894 19.3785 59.9839 19.6991C61.4848 20.1018 62.9715 20.5577 64.4401 21.0656C65.0974 21.2929 65.7511 21.5306 66.4009 21.7786L68.5386 21.5407L87.7053 16.9907C87.2144 18.2134 86.9476 19.5255 86.922 20.843C86.8909 22.4486 87.2152 24.0443 87.6932 25.5775C88.1783 27.1335 88.8348 28.6594 89.8507 29.9339C90.8423 31.1779 92.1659 32.1548 93.6468 32.7358C87.9795 34.5748 82.3233 36.448 76.6794 38.3557C75.5699 38.7307 74.4608 39.1069 73.3522 39.4846L71.9856 40.6135L66.6382 46.555C66.1124 47.1423 65.5119 47.6627 64.8558 48.0998C64.2796 48.4836 63.6606 48.803 63.014 49.0504C57.6869 50.4782 52.3593 51.9042 47.0313 53.3283C37.5263 55.869 28.0193 58.404 18.5117 60.9334C17.6743 61.1254 16.8159 61.2252 15.9568 61.2305C14.8129 61.2374 13.6682 61.0762 12.5702 60.7551C11.3662 60.4032 10.2188 59.859 9.18353 59.1509C7.61291 58.0767 6.31443 56.6367 5.26218 55.0512C4.25778 53.5381 3.46429 51.8767 3.00446 50.1197C2.64467 48.7452 2.49092 47.322 2.46972 45.9013C2.44465 44.2202 2.60579 42.5281 3.06387 40.9104C3.42288 39.6426 3.96636 38.4211 4.7275 37.3454C5.77305 35.8679 7.22794 34.6832 8.88658 33.9587" stroke="#5198A9" stroke-width="2"/>
<path id="path4383" opacity="0.56195" d="M96.21 33.0128C93.2508 33.9506 89.4764 30.7036 87.7794 25.7603C86.0824 20.8171 87.1055 16.0495 90.0645 15.1117C93.0237 14.1738 96.7981 17.4209 98.4951 22.3641C100.192 27.3074 99.169 32.075 96.21 33.0128V33.0128Z" fill="#92C7D9" stroke="#5198A9" stroke-width="2"/>
<path id="path4385" d="M96.21 33.0128C93.2508 33.9506 89.4764 30.7036 87.7794 25.7603C86.0824 20.8171 87.1055 16.0495 90.0645 15.1117C93.0237 14.1738 96.7981 17.4209 98.4951 22.3641C100.192 27.3074 99.169 32.075 96.21 33.0128V33.0128Z" stroke="#5198A9" stroke-width="2"/>
</g>
<g id="bottleCap">
<path id="path4389" d="M106.116 25.7946C104.4 26.3518 102.211 24.4227 101.227 21.4859C100.243 18.5491 100.837 15.7167 102.553 15.1595C104.268 14.6023 106.457 16.5314 107.441 19.4682C108.425 22.405 107.832 25.2374 106.116 25.7946V25.7946Z" fill="url(#paint4_radial_1:3)" stroke="#6F4923" stroke-width="5.00007"/>
<g id="path4391">
<path d="M102.392 15.2301L90.5443 18.9272C89.3674 20.859 89.2052 23.3722 90.1242 25.4391C90.8849 27.1501 92.3585 28.5306 94.1154 29.1783L105.921 25.9433C103.798 25.4093 101.989 23.763 101.258 21.7001C100.875 20.6213 100.776 19.4434 100.974 18.3159C101.172 17.1886 101.665 16.1144 102.392 15.2301" fill="url(#paint5_linear_1:3)"/>
<path d="M102.392 15.2301L90.5443 18.9272C89.3674 20.859 89.2052 23.3722 90.1242 25.4391C90.8849 27.1501 92.3585 28.5306 94.1154 29.1783L105.921 25.9433C103.798 25.4093 101.989 23.763 101.258 21.7001C100.875 20.6213 100.776 19.4434 100.974 18.3159C101.172 17.1886 101.665 16.1144 102.392 15.2301" stroke="#6F4923" stroke-width="5" stroke-linejoin="round"/>
</g>
</g>
<g id="bottleBody1">
<path id="path4393" opacity="0.5531" d="M96.21 33.0128C93.2508 33.9506 89.4764 30.7036 87.7794 25.7603C86.0824 20.8171 87.1055 16.0495 90.0645 15.1117C90.8043 14.8772 91.5951 14.9043 92.3915 15.1541C93.188 15.4039 93.8642 15.8343 94.627 16.4906C95.3899 17.1468 94.6848 16.3483 95.2395 16.871C95.6667 17.2736 92.7843 17.2521 92.3021 18.2797C91.8218 19.3034 92.6532 22.8806 92.8654 23.4986C93.0775 24.1165 94.7445 28.6715 96.4007 28.9921C97.4536 28.8096 99.3479 27.8821 99.3961 28.4604C99.4926 29.6172 99.3053 28.2271 99.0986 29.1906C98.6831 31.1159 97.6882 32.5427 96.2091 33.0115L96.21 33.0128Z" fill="#92C7D9"/>
<path id="path4395" opacity="0.70796" d="M99.4092 15.7125L96.5733 14.4521L94.6828 14.8092L93.1703 16.2797L92.33 20.145L93.3804 24.8504L96.3213 28.7366L99.1362 30.2701L101.342 30.039L102.518 29.0097L103.19 27.3502V27.0561C102.741 27.3214 102.238 27.4941 101.72 27.5603C101.252 27.62 100.774 27.5931 100.313 27.4972C99.645 27.3587 99.0103 27.077 98.443 26.699C97.7922 26.2653 97.2275 25.7042 96.7834 25.0605C96.4334 24.553 96.1573 23.9929 95.9852 23.401C95.7914 22.7344 95.731 22.0362 95.7121 21.3424C95.6929 20.6381 95.7162 19.9269 95.8802 19.2417C96.0319 18.6074 96.3032 18.0038 96.6574 17.4561C97.0105 16.9103 97.4567 16.41 98.0228 16.0907C98.4444 15.853 98.9254 15.7218 99.4093 15.7126" fill="#B4CDD7"/>
<path id="path4397" d="M103.517 27.2405C102.537 30.7861 99.2855 31.4925 96.2555 28.8184C93.2255 26.1444 91.564 21.1023 92.5445 17.5568C93.4522 14.2747 96.3294 13.3883 99.2146 15.5016" stroke="#5198A9" stroke-width="2" stroke-linecap="round"/>
<g id="path4399" opacity="0.54867" filter="url(#filter7_f_1:3)">
<path d="M92.7081 15.7974L91.1746 15.3562L90.0192 15.6293L89.0739 16.1545L88.3807 16.8897C88.1524 17.5062 88.0821 18.1805 88.1781 18.831C88.2779 19.5066 88.5573 20.1548 88.9799 20.6913L89.4941 18.1712L90.3974 16.7848L91.4267 16.1125L92.7081 15.7975" fill="#5198A9"/>
</g>
<g id="path4401" opacity="0.76991" filter="url(#filter8_f_1:3)">
<path d="M92.6465 15.9022C91.8293 15.9056 91.0176 16.2272 90.4197 16.7844C89.8475 17.3179 89.481 18.0455 89.2857 18.8029C89.0904 19.5604 89.057 20.3507 89.0753 21.1327C89.1035 22.3338 89.2515 23.532 89.5164 24.7038C89.4672 23.4965 89.5377 22.2842 89.7265 21.0908C89.8402 20.3724 90.0038 19.6429 90.3987 19.0322C90.6018 18.7181 90.8644 18.4408 91.176 18.2339C91.4068 18.0806 91.6637 17.9665 91.9322 17.8978C92.0034 17.5706 92.0947 17.2476 92.2053 16.9315C92.3287 16.5789 92.4762 16.2347 92.6464 15.9022" fill="white"/>
</g>
<g id="path4403" opacity="0.5177" filter="url(#filter9_f_1:3)">
<path d="M97.2248 31.552C96.3526 31.7255 95.4326 31.6519 94.5989 31.3419C93.7789 31.0369 93.0532 30.5118 92.4352 29.8924C91.5469 29.002 90.8729 27.9204 90.2926 26.8044C89.9122 26.073 89.5685 25.3225 89.2633 24.5567C89.3989 25.451 89.6465 26.3283 89.9985 27.1614C90.4403 28.207 91.0455 29.1809 91.7631 30.0603C92.227 30.6288 92.7371 31.1577 93.2546 31.6778C93.6772 32.1025 94.1297 32.5366 94.7041 32.7071C95.1282 32.833 95.5928 32.8011 96.0065 32.6441C96.5282 32.4461 96.9713 32.0488 97.2248 31.5518" fill="#68A1B1"/>
</g>
<g id="path4405" opacity="0.70354" filter="url(#filter10_f_1:3)">
<path d="M97.2681 31.4887C96.7651 31.5432 96.2548 31.529 95.7556 31.4467C94.9275 31.3102 94.1312 30.9845 93.4448 30.5014C92.7886 29.8908 92.1511 29.2602 91.5333 28.6109C90.7662 27.8046 90.0036 26.9211 89.7477 25.8379C89.6537 25.44 89.6323 25.0251 89.6847 24.6196C89.9749 25.6385 90.5043 26.5885 91.2182 27.3714C91.7837 27.9916 92.4638 28.507 93.2139 28.8838C93.5975 29.1007 94.0189 29.2507 94.4533 29.325C94.8204 29.3878 95.1957 29.3797 95.5666 29.346L96.0287 29.304L97.1631 30.1232L98.1504 30.5223C97.7192 30.5843 97.2792 30.5843 96.848 30.5223C96.577 30.4834 96.3094 30.42 96.0497 30.3333L97.2681 31.4886" fill="white"/>
</g>
<g id="path4407" opacity="0.80531" filter="url(#filter11_f_1:3)">
<path d="M98.569 15.7974C98.3242 15.5565 98.0389 15.3568 97.7288 15.2092C97.4212 15.0628 97.0805 14.9669 96.7415 14.9991C96.4498 15.0268 96.1701 15.15 95.9432 15.3352C95.6655 15.562 95.4697 15.8739 95.313 16.1965C95.0162 16.8077 94.8432 17.475 94.7668 18.1501C94.6847 18.8763 94.7128 19.6134 94.8299 20.3348C94.9494 21.0716 95.1617 21.7932 95.4601 22.4774C95.379 21.3154 95.4143 20.1453 95.5651 18.9902C95.6221 18.5539 95.696 18.1178 95.8335 17.6999C95.971 17.282 96.1746 16.881 96.4684 16.5535C96.7944 16.1901 97.2313 15.9243 97.7078 15.8182C97.9899 15.7555 98.2842 15.7483 98.569 15.7972" fill="#6BA1B1"/>
</g>
<g id="path4409" opacity="0.72566" filter="url(#filter12_f_1:3)">
<path d="M102.414 27.7289C102.314 27.8547 102.252 28.0062 102.2 28.1583C102.148 28.3104 102.105 28.4661 102.036 28.6112C101.932 28.829 101.771 29.0191 101.573 29.1574C101.496 29.2117 101.411 29.2588 101.318 29.2765C101.271 29.2854 101.223 29.2867 101.177 29.2779C101.13 29.269 101.085 29.2499 101.048 29.2204C101 29.1819 100.966 29.1268 100.95 29.0675C100.933 29.0082 100.932 28.9449 100.943 28.8843C100.96 28.7924 101.002 28.7069 101.053 28.6283C101.103 28.5498 101.162 28.4771 101.216 28.4011C101.328 28.2453 101.42 28.0755 101.489 27.897C101.299 27.9908 101.122 28.1114 100.964 28.2541C100.816 28.3883 100.685 28.5428 100.586 28.7162C100.518 28.835 100.462 28.9664 100.355 29.0523C100.296 29.0998 100.223 29.1307 100.148 29.1359C100.072 29.1411 99.9947 29.1197 99.9349 29.0733C99.866 29.0198 99.8246 28.9365 99.8079 28.8508C99.7911 28.7652 99.797 28.6766 99.8088 28.5902C99.8255 28.4688 99.8537 28.3491 99.8929 28.2331C99.6692 28.1766 99.4509 28.0991 99.2417 28.002C98.851 27.8207 98.494 27.5719 98.1704 27.2877C97.6838 26.8607 97.2716 26.3543 96.91 25.8173C96.5909 25.3435 96.3096 24.8442 96.0697 24.3258C96.2248 25.0264 96.4727 25.7064 96.8049 26.3425C97.273 27.2386 97.9031 28.0401 98.5695 28.8002C98.8826 29.1573 99.2149 29.5146 99.6409 29.7245C100.009 29.9056 100.435 29.9654 100.838 29.8925C101.23 29.7891 101.595 29.5847 101.889 29.3043C102.287 28.9232 102.543 28.4161 102.729 27.8969C102.783 27.7447 102.832 27.5905 102.876 27.4348C102.695 27.4781 102.53 27.5833 102.414 27.7289" fill="#6EA2B1"/>
</g>
<g id="path4411" opacity="0.69469" filter="url(#filter13_f_1:3)">
<path d="M98.4642 15.9654C98.0647 15.8518 97.6259 15.882 97.2458 16.0494C96.8685 16.2156 96.5567 16.5091 96.3216 16.8477C95.9725 17.3502 95.7844 17.9481 95.6703 18.5492C95.513 19.3782 95.4877 20.2262 95.4813 21.07C95.4781 21.4905 95.4795 21.912 95.5233 22.3303C95.604 23.101 95.8289 23.8535 96.1535 24.5571C96.4375 25.1727 96.7982 25.7528 97.2248 26.2796C97.6971 26.8628 98.2502 27.3805 98.8633 27.8131L99.7666 28.3488C99.7642 28.4725 99.7784 28.5964 99.8086 28.7164C99.824 28.7772 99.8436 28.8375 99.8754 28.8916C99.9072 28.9456 99.9519 28.9934 100.008 29.021C100.077 29.0548 100.159 29.0558 100.233 29.0337C100.306 29.0116 100.372 28.9678 100.428 28.9159C100.584 28.7738 100.674 28.575 100.806 28.4118C100.964 28.2181 101.185 28.0762 101.426 28.0127C101.436 28.1826 101.369 28.3555 101.248 28.4748C101.172 28.549 101.078 28.6021 101.002 28.6756C100.964 28.7124 100.93 28.7546 100.909 28.803C100.887 28.8514 100.878 28.9064 100.89 28.958C100.899 28.9948 100.918 29.029 100.943 29.057C100.969 29.085 101.001 29.107 101.035 29.1223C101.104 29.1531 101.183 29.1572 101.258 29.147C101.43 29.1238 101.585 29.0284 101.706 28.9047C101.827 28.7809 101.916 28.6296 101.993 28.4748C102.115 28.2304 102.211 27.9739 102.308 27.7186C102.36 27.5819 102.413 27.4453 102.466 27.309L101.51 27.5716C101.226 27.5864 100.941 27.5758 100.659 27.54C100.079 27.4664 99.5135 27.2857 98.9895 27.0254C98.2699 26.668 97.6261 26.1596 97.1094 25.5444C96.5931 24.9298 96.2041 24.2098 95.9645 23.4437C95.587 22.2368 95.5857 20.9175 95.9435 19.7046C96.2297 18.7345 96.7357 17.8416 97.3194 17.0158C97.5292 16.719 97.7536 16.4255 98.0442 16.2071C98.1736 16.1097 98.315 16.0283 98.4642 15.9654Z" fill="white"/>
</g>
<g id="path4413" opacity="0.61947" filter="url(#filter14_f_1:3)">
<path d="M49.2457 21.9528L11.1818 34.3886L9.33316 35.9011L7.98874 38.758L11.1817 35.9851L16.0552 33.9684L24.1216 31.3637L28.491 30.3554L29.1632 31.2797L28.7431 32.6241V33.8845L30.0875 33.2963L31.2639 31.0276L33.9526 28.8429L39.5824 26.4062L46.8087 23.9695L49.2454 22.7091V21.9528" fill="#F6FDFF"/>
</g>
</g>
</g>
<defs>
<filter id="filter0_f_1:3" x="30.6125" y="0.740574" width="61.6924" height="65.8627" filterUnits="userSpaceOnUse" color-interpolation-filters="sRGB">
<feFlood flood-opacity="0" result="BackgroundImageFix"/>
<feBlend mode="normal" in="SourceGraphic" in2="BackgroundImageFix" result="shape"/>
<feGaussianBlur stdDeviation="9.34556" result="effect1_foregroundBlur_1:3"/>
</filter>
<filter id="filter1_f_1:3" x="44.3724" y="41.8666" width="22.4342" height="15.544" filterUnits="userSpaceOnUse" color-interpolation-filters="sRGB">
<feFlood flood-opacity="0" result="BackgroundImageFix"/>
<feBlend mode="normal" in="SourceGraphic" in2="BackgroundImageFix" result="shape"/>
<feGaussianBlur stdDeviation="2.8987" result="effect1_foregroundBlur_1:3"/>
</filter>
<filter id="filter2_f_1:3" x="48.715" y="13.9424" width="26.6067" height="22.2374" filterUnits="userSpaceOnUse" color-interpolation-filters="sRGB">
<feFlood flood-opacity="0" result="BackgroundImageFix"/>
<feBlend mode="normal" in="SourceGraphic" in2="BackgroundImageFix" result="shape"/>
<feGaussianBlur stdDeviation="3.45867" result="effect1_foregroundBlur_1:3"/>
</filter>
<filter id="filter3_f_1:3" x="61.4569" y="12.1474" width="30.8686" height="18.6006" filterUnits="userSpaceOnUse" color-interpolation-filters="sRGB">
<feFlood flood-opacity="0" result="BackgroundImageFix"/>
<feBlend mode="normal" in="SourceGraphic" in2="BackgroundImageFix" result="shape"/>
<feGaussianBlur stdDeviation="2.71753" result="effect1_foregroundBlur_1:3"/>
</filter>
<filter id="filter4_f_1:3" x="72.6813" y="15.6416" width="14.7226" height="7.4963" filterUnits="userSpaceOnUse" color-interpolation-filters="sRGB">
<feFlood flood-opacity="0" result="BackgroundImageFix"/>
<feBlend mode="normal" in="SourceGraphic" in2="BackgroundImageFix" result="shape"/>
<feGaussianBlur stdDeviation="1.26489" result="effect1_foregroundBlur_1:3"/>
</filter>
<filter id="filter5_f_1:3" x="68.5317" y="8.6364" width="32.8503" height="33.3544" filterUnits="userSpaceOnUse" color-interpolation-filters="sRGB">
<feFlood flood-opacity="0" result="BackgroundImageFix"/>
<feBlend mode="normal" in="SourceGraphic" in2="BackgroundImageFix" result="shape"/>
<feGaussianBlur stdDeviation="4.76748" result="effect1_foregroundBlur_1:3"/>
</filter>
<filter id="filter6_f_1:3" x="61.5554" y="21.4055" width="39.8309" height="27.5631" filterUnits="userSpaceOnUse" color-interpolation-filters="sRGB">
<feFlood flood-opacity="0" result="BackgroundImageFix"/>
<feBlend mode="normal" in="SourceGraphic" in2="BackgroundImageFix" result="shape"/>
<feGaussianBlur stdDeviation="4.85312" result="effect1_foregroundBlur_1:3"/>
</filter>
<filter id="filter7_f_1:3" x="85.6767" y="12.8966" width="9.49099" height="10.2543" filterUnits="userSpaceOnUse" color-interpolation-filters="sRGB">
<feFlood flood-opacity="0" result="BackgroundImageFix"/>
<feBlend mode="normal" in="SourceGraphic" in2="BackgroundImageFix" result="shape"/>
<feGaussianBlur stdDeviation="1.22981" result="effect1_foregroundBlur_1:3"/>
</filter>
<filter id="filter8_f_1:3" x="85.351" y="12.1822" width="11.0155" height="16.2415" filterUnits="userSpaceOnUse" color-interpolation-filters="sRGB">
<feFlood flood-opacity="0" result="BackgroundImageFix"/>
<feBlend mode="normal" in="SourceGraphic" in2="BackgroundImageFix" result="shape"/>
<feGaussianBlur stdDeviation="1.85997" result="effect1_foregroundBlur_1:3"/>
</filter>
<filter id="filter9_f_1:3" x="86.9362" y="22.2296" width="12.6157" height="12.8822" filterUnits="userSpaceOnUse" color-interpolation-filters="sRGB">
<feFlood flood-opacity="0" result="BackgroundImageFix"/>
<feBlend mode="normal" in="SourceGraphic" in2="BackgroundImageFix" result="shape"/>
<feGaussianBlur stdDeviation="1.16354" result="effect1_foregroundBlur_1:3"/>
</filter>
<filter id="filter10_f_1:3" x="85.6333" y="20.5961" width="16.5406" height="14.9485" filterUnits="userSpaceOnUse" color-interpolation-filters="sRGB">
<feFlood flood-opacity="0" result="BackgroundImageFix"/>
<feBlend mode="normal" in="SourceGraphic" in2="BackgroundImageFix" result="shape"/>
<feGaussianBlur stdDeviation="2.01173" result="effect1_foregroundBlur_1:3"/>
</filter>
<filter id="filter11_f_1:3" x="92.9425" y="13.2157" width="7.40372" height="11.0389" filterUnits="userSpaceOnUse" color-interpolation-filters="sRGB">
<feFlood flood-opacity="0" result="BackgroundImageFix"/>
<feBlend mode="normal" in="SourceGraphic" in2="BackgroundImageFix" result="shape"/>
<feGaussianBlur stdDeviation="0.888613" result="effect1_foregroundBlur_1:3"/>
</filter>
<filter id="filter12_f_1:3" x="94.9352" y="23.1913" width="9.07522" height="7.866" filterUnits="userSpaceOnUse" color-interpolation-filters="sRGB">
<feFlood flood-opacity="0" result="BackgroundImageFix"/>
<feBlend mode="normal" in="SourceGraphic" in2="BackgroundImageFix" result="shape"/>
<feGaussianBlur stdDeviation="0.567262" result="effect1_foregroundBlur_1:3"/>
</filter>
<filter id="filter13_f_1:3" x="93.6288" y="14.0463" width="10.6885" height="16.9571" filterUnits="userSpaceOnUse" color-interpolation-filters="sRGB">
<feFlood flood-opacity="0" result="BackgroundImageFix"/>
<feBlend mode="normal" in="SourceGraphic" in2="BackgroundImageFix" result="shape"/>
<feGaussianBlur stdDeviation="0.925686" result="effect1_foregroundBlur_1:3"/>
</filter>
<filter id="filter14_f_1:3" x="4.19518" y="18.1592" width="48.8441" height="24.3924" filterUnits="userSpaceOnUse" color-interpolation-filters="sRGB">
<feFlood flood-opacity="0" result="BackgroundImageFix"/>
<feBlend mode="normal" in="SourceGraphic" in2="BackgroundImageFix" result="shape"/>
<feGaussianBlur stdDeviation="1.89678" result="effect1_foregroundBlur_1:3"/>
</filter>
<radialGradient id="paint0_radial_1:3" cx="0" cy="0" r="1" gradientUnits="userSpaceOnUse" gradientTransform="translate(57.5148 33.0632) rotate(90) scale(8.47421 5.24282)">
<stop stop-color="#AB855D"/>
<stop offset="1" stop-color="#52300D"/>
</radialGradient>
<linearGradient id="paint1_linear_1:3" x1="40.0228" y1="40.8523" x2="35.2332" y2="32.7654" gradientUnits="userSpaceOnUse">
<stop stop-color="#D8CBB8"/>
<stop offset="1" stop-color="#7A5E45"/>
</linearGradient>
<linearGradient id="paint2_linear_1:3" x1="33.0056" y1="41.0769" x2="37.8784" y2="50.2784" gradientUnits="userSpaceOnUse">
<stop stop-color="#D8CBB8"/>
<stop offset="1" stop-color="#7A5E45"/>
</linearGradient>
<linearGradient id="paint3_linear_1:3" x1="55.5811" y1="29.0754" x2="59.0681" y2="36.5485" gradientUnits="userSpaceOnUse">
<stop stop-color="#D8CBB8"/>
<stop offset="1" stop-color="#7A5E45"/>
</linearGradient>
<radialGradient id="paint4_radial_1:3" cx="0" cy="0" r="1" gradientUnits="userSpaceOnUse" gradientTransform="translate(104.334 20.4768) rotate(71.8492) scale(8.78303 5.72437)">
<stop stop-color="#AB855D"/>
<stop offset="1" stop-color="#52300D"/>
</radialGradient>
<linearGradient id="paint5_linear_1:3" x1="99.5772" y1="26.7457" x2="97.0984" y2="19.0065" gradientUnits="userSpaceOnUse">
<stop stop-color="#AB855D"/>
<stop offset="1" stop-color="#52300D"/>
</linearGradient>
</defs>
</svg>
